# xmcd
#
# Track frame offsets: 
#        150
#        19462
#        37912
#        57187
#        73612
#        92887
#        112124
#        131586
#        147823
#        167998
#
# Disc length: 2478 seconds
#
# Revision: 0
# Processed by: cddbd v1.5.2PL0 Copyright (c) Steve Scherf et al.
# Submitted via: ExactAudioCopy v0.99pb4
#
DISCID=8f09ac0a
DTITLE=น้องแป้ง ณัฐธิดา - อกหักไม่มีเหตุผล
DYEAR=2008
DGENRE=Country
TTITLE0=อกหักไม่มีเหตุผล
TTITLE1=สายนี้รบกวนหรือเปล่า
TTITLE2=ทำนบน้ำตา
TTITLE3=คนเป็นตาฮัก
TTITLE4=สาวภูไทไกลบ้าน
TTITLE5=ถนนแห่งความคิดถึง
TTITLE6=ติด ร. ม. สมมุติ
TTITLE7=เรียนอยู่เด้ออ้าย
TTITLE8=หนีให้ไกลเท่าใจรัก
TTITLE9=รหัสหัวใจ
EXTD=
EXTT0=
EXTT1=
EXTT2=
EXTT3=
EXTT4=
EXTT5=
EXTT6=
EXTT7=
EXTT8=
EXTT9=
PLAYORDER=
